PathFileType	4	(X/Y/Z)	 s02c0403.trc
DataRate	CameraRate	NumFrames	NumMarkers	Units	OrigDataRate	OrigDataStartFrame	OrigNumFrames
200	200	4	51	mm	200	751	2000
Frame#	Time	racr			lacr			c7			jug			rlel			rdr			llel			ldr			s2			lic			ric			lasi			rasi			rpsi			lpsi			rgt			lgt			rth1			rth2			rth3			rth4			rlfc			rmfc			rsh1			rsh2			rsh3			rsh4			rlmal			rmmal			rcal			rtoe			rmt5			rmt1			lth1			lth2			lth4			lth3			llfc			lmfc			lsh1			lsh2			lsh3			lsh4			llmal			lmmal			lcal			ltoe			lmt5			SBIKE			LBIKE			RBIKE			
		X1	Y1	Z1	X2	Y2	Z2	X3	Y3	Z3	X4	Y4	Z4	X5	Y5	Z5	X6	Y6	Z6	X7	Y7	Z7	X8	Y8	Z8	X9	Y9	Z9	X10	Y10	Z10	X11	Y11	Z11	X12	Y12	Z12	X13	Y13	Z13	X14	Y14	Z14	X15	Y15	Z15	X16	Y16	Z16	X17	Y17	Z17	X18	Y18	Z18	X19	Y19	Z19	X20	Y20	Z20	X21	Y21	Z21	X22	Y22	Z22	X23	Y23	Z23	X24	Y24	Z24	X25	Y25	Z25	X26	Y26	Z26	X27	Y27	Z27	X28	Y28	Z28	X29	Y29	Z29	X30	Y30	Z30	X31	Y31	Z31	X32	Y32	Z32	X33	Y33	Z33	X34	Y34	Z34	X35	Y35	Z35	X36	Y36	Z36	X37	Y37	Z37	X38	Y38	Z38	X39	Y39	Z39	X40	Y40	Z40	X41	Y41	Z41	X42	Y42	Z42	X43	Y43	Z43	X44	Y44	Z44	X45	Y45	Z45	X46	Y46	Z46	X47	Y47	Z47	X48	Y48	Z48	X49	Y49	Z49	X50	Y50	Z50	X51	Y51	Z51	
751	3.7550	667.297526	1203.499960	-110.259292	731.211028	1215.277236	-450.214233	702.022467	1253.162485	-289.207725	627.494918	1132.448403	-291.609699	534.143287	980.752592	-52.769518	690.772900	878.966000	-119.667364	556.994297	1022.554053	-592.836943	705.209832	893.561392	-500.387121	161.378492	1164.596401	-326.259541	278.991664	1138.011390	-469.831423	278.169009	1126.358892	-176.957358	315.159181	1097.503736	-440.368669	328.978434	1091.334506	-206.819345	181.005187	1187.248717	-282.973152	186.758503	1196.822320	-366.822847	224.813557	1047.821341	-148.747039	224.916417	1067.567476	-509.370267	276.620859	963.475875	-130.201952	317.787664	885.239071	-131.139729	318.835417	801.735160	-109.018234	346.659988	890.032663	-155.117339	327.390831	664.695603	-143.437647	325.122238	646.402882	-246.919534	310.431853	560.121230	-120.637877	323.733435	472.878779	-133.576789	292.036506	392.070246	-132.151868	339.954354	473.307350	-169.597883	270.037909	272.796599	-141.110039	282.996952	291.577881	-219.673580	192.224337	249.329371	-187.675037	459.655034	143.404739	-185.099302	350.908409	165.259165	-124.910912	382.816767	174.722922	-231.044646	345.308468	1004.822962	-515.130288	427.338302	975.477311	-510.855950	445.187128	1001.844366	-493.376087	484.563584	907.682286	-513.887014	558.331658	837.558806	-491.201565	550.558409	810.441655	-378.705219	492.363416	759.786593	-506.707855	429.490952	703.244661	-487.736186	343.324384	677.708835	-495.915531	438.838260	691.252834	-449.787921	239.315498	639.256481	-488.409769	249.077158	633.891728	-407.175177	152.658572	641.633393	-449.378831	360.409620	445.016492	-427.407286	270.342406	493.955458	-498.786766	-126.050883	872.316225	-307.400129	37.256161	86.712082	-514.202862	33.877001	83.281030	-114.056261	
752	3.7600	667.998895	1203.492551	-111.713807	730.899041	1213.962288	-452.104585	702.344896	1252.709731	-291.174274	627.491031	1132.256493	-292.942690	534.766522	980.865321	-52.999374	691.033915	878.501009	-119.643817	556.149417	1021.258567	-593.541829	704.876483	893.713094	-500.371282	161.427900	1165.057098	-325.590425	278.728577	1139.223721	-469.521284	278.760087	1126.574728	-176.898888	314.877213	1098.527518	-440.296037	329.482532	1091.526012	-206.836288	180.755800	1188.740681	-281.469027	187.098112	1197.395677	-366.328979	225.422561	1048.033165	-148.739949	224.818382	1068.550930	-509.596883	276.908461	963.569741	-130.463632	317.678471	885.106096	-131.406076	318.363223	801.625472	-109.233907	346.457056	889.747794	-155.545016	326.082362	664.543695	-143.625584	323.783727	646.150196	-246.965181	308.812956	560.023595	-120.669314	322.051581	472.699556	-133.499304	290.317604	391.906837	-132.011590	338.311413	473.180009	-169.402280	268.328370	272.739576	-140.891850	281.383246	291.449628	-219.254627	190.269715	250.515241	-187.319993	456.448032	140.883301	-185.185601	348.021835	164.227551	-124.851968	379.795843	173.119355	-231.217758	345.207495	1006.093297	-515.015799	427.305617	976.984654	-510.802255	445.099847	1003.496288	-493.480312	484.756184	909.449414	-513.868984	558.943157	839.772082	-491.196806	552.608730	813.342685	-378.908677	493.476041	761.653775	-506.730147	430.923052	704.860186	-487.677007	344.883180	678.809948	-495.792110	440.296120	692.882476	-449.558700	241.014398	639.810838	-488.075705	251.035557	634.635333	-406.967033	154.135254	641.609496	-449.289788	364.071266	447.281814	-427.367742	273.428112	495.002527	-498.653701	-126.071333	872.306090	-307.432263	37.272342	86.704961	-514.211607	33.360650	83.731231	-114.143214	
753	3.7650	668.832591	1203.485659	-113.215511	730.555985	1212.658787	-454.079924	702.770668	1252.294037	-293.042336	627.468083	1131.980929	-294.251142	535.470179	981.009177	-53.378729	691.325642	878.184459	-119.604131	555.245736	1019.906375	-594.271720	704.552543	893.838261	-500.386024	161.755341	1165.628614	-325.133675	278.389644	1140.266360	-469.324911	279.396466	1126.856238	-176.815199	314.609014	1099.510373	-440.270932	330.064258	1091.808520	-206.848955	180.996480	1189.555994	-280.714539	187.112387	1198.233471	-365.805813	226.045497	1048.266308	-148.764904	224.598884	1069.604675	-509.532336	277.238158	963.653067	-130.714578	317.556276	884.799836	-131.991697	317.890258	801.509715	-109.512008	346.321051	889.318189	-156.186780	324.723678	664.341523	-143.854517	322.423430	645.967373	-247.153819	307.189108	560.055041	-120.814875	320.418295	472.703506	-133.528988	288.643740	392.033521	-131.806431	336.704472	473.069732	-169.334217	266.635822	272.726252	-140.587615	279.937509	291.435511	-218.952306	188.456612	251.394237	-187.041652	453.124568	138.584798	-185.271076	345.115118	163.251407	-124.850896	376.830248	171.762058	-231.204492	345.102510	1007.345899	-514.859584	427.282836	978.427224	-510.725040	445.048453	1005.060642	-493.597157	484.942720	911.097893	-513.946857	559.517860	841.890677	-491.215215	553.471371	815.441061	-378.950846	494.568888	763.439851	-506.618257	432.313293	706.189230	-487.681667	346.411889	679.764785	-495.635926	441.744258	694.814262	-449.658460	242.725826	640.309341	-487.809371	253.646757	635.171221	-407.410315	155.612256	641.436855	-449.185705	367.776089	449.501162	-427.443051	276.479716	496.128119	-498.627008	-126.088234	872.304815	-307.421827	37.261344	86.696942	-514.206556	33.344676	83.733196	-114.134671	
754	3.7700	669.707393	1203.448849	-114.714734	730.289036	1211.196806	-455.991492	703.184798	1251.720758	-295.100588	627.384702	1131.817129	-295.764798	536.089749	981.625321	-53.475425	691.661612	877.910291	-119.556021	554.297916	1018.408521	-594.929206	704.232220	893.930662	-500.387286	162.491843	1166.179281	-324.882226	277.944944	1141.310894	-469.189383	280.021455	1127.238190	-176.699663	314.368983	1100.617533	-440.303849	330.664793	1092.115992	-206.894418	181.177436	1190.468581	-280.123090	187.152301	1198.997429	-365.323171	226.639190	1048.509314	-148.763136	224.366666	1070.706893	-509.388248	277.546104	963.786801	-130.954260	317.434946	884.712554	-132.279649	317.404040	801.462878	-109.792112	346.216157	889.152600	-156.451389	323.611113	664.320951	-144.075166	321.045413	645.872311	-247.428065	305.763066	560.348548	-120.633485	318.873663	472.734075	-133.569116	287.020020	392.008728	-131.835116	335.159430	473.026669	-169.363639	264.900973	272.894280	-140.261028	278.095862	291.482809	-218.628195	186.547818	252.571552	-186.691040	449.807717	136.344603	-185.414422	342.236623	162.332564	-124.858934	373.785027	170.410324	-231.325532	344.958085	1008.532166	-514.454862	427.192585	980.211271	-510.582143	445.023605	1006.567327	-493.716383	485.031951	912.627016	-514.114915	560.023496	843.974034	-491.249056	554.195386	817.559900	-378.902810	495.612662	765.113532	-506.492736	433.640958	707.601965	-487.272687	347.927486	680.639701	-495.417236	443.175900	696.258311	-449.445580	244.475362	640.729534	-487.491606	254.999424	635.543545	-407.120087	157.119196	641.137367	-449.067774	371.481418	451.644914	-427.376673	279.592987	497.158156	-498.603898	-126.121864	872.298924	-307.486577	37.276749	86.697153	-514.210796	33.353360	83.740211	-114.154433	
